<svg version="1.1" xmlns="http://www.w3.org/2000/svg" viewBox="0 0 1794.9281024373872 1337.3989927820112" width="3589.8562048747744" height="2674.7979855640224" filter="invert(93%) hue-rotate(180deg)">
  <!-- svg-source:excalidraw -->
  
  <defs>
    <style class="style-fonts">
      @font-face {
        font-family: "Virgil";
        src: url("https://excalidraw.com/Virgil.woff2");
      }
      @font-face {
        font-family: "Cascadia";
        src: url("https://excalidraw.com/Cascadia.woff2");
      }
      @font-face {
        font-family: "Assistant";
        src: url("https://excalidraw.com/Assistant-Regular.woff2");
      }
    </style>
    
  </defs>
  <rect x="0" y="0" width="1794.9281024373872" height="1337.3989927820112" fill="#fdf8f6"></rect><g stroke-linecap="round" transform="translate(623.2862287593666 81.03689620732018) rotate(0 151.4284325848035 222.32023438796)"><path d="M32 0 C85.81 -2.06, 136.75 0.63, 270.86 0 M32 0 C117.27 0.29, 203.9 1.09, 270.86 0 M270.86 0 C292.02 1.58, 303.55 10.78, 302.86 32 M270.86 0 C291.51 -1.65, 303.73 11.38, 302.86 32 M302.86 32 C302.88 172.91, 302.62 314.12, 302.86 412.64 M302.86 32 C300.55 119.22, 301.11 206.45, 302.86 412.64 M302.86 412.64 C302.67 432.21, 290.89 443.31, 270.86 444.64 M302.86 412.64 C303.83 436.05, 291.72 442.51, 270.86 444.64 M270.86 444.64 C210.72 446.02, 151.04 443.18, 32 444.64 M270.86 444.64 C199.94 443.29, 129.19 443.17, 32 444.64 M32 444.64 C11.36 442.89, -1.21 432.56, 0 412.64 M32 444.64 C10.84 446.48, -0.45 432.45, 0 412.64 M0 412.64 C-0.91 308.63, -1.08 205.02, 0 32 M0 412.64 C0.88 265.09, 1.15 116.93, 0 32 M0 32 C0.99 11.87, 12.27 -0.08, 32 0 M0 32 C0.46 9.72, 11.38 -0.85, 32 0" stroke="#1e1e1e" stroke-width="2" fill="none"></path></g><g transform="translate(658.4078485561724 117.82029387436683) rotate(0 72.5999984741211 200)"><text x="0" y="0" font-family="Virgil, Segoe UI Emoji" font-size="20px" fill="#1e1e1e" text-anchor="start" style="white-space: pre;" direction="ltr" dominant-baseline="text-before-edge">POST</text><text x="0" y="25" font-family="Virgil, Segoe UI Emoji" font-size="20px" fill="#1e1e1e" text-anchor="start" style="white-space: pre;" direction="ltr" dominant-baseline="text-before-edge"></text><text x="0" y="50" font-family="Virgil, Segoe UI Emoji" font-size="20px" fill="#1e1e1e" text-anchor="start" style="white-space: pre;" direction="ltr" dominant-baseline="text-before-edge">/api/uploadCSV</text><text x="0" y="75" font-family="Virgil, Segoe UI Emoji" font-size="20px" fill="#1e1e1e" text-anchor="start" style="white-space: pre;" direction="ltr" dominant-baseline="text-before-edge"></text><text x="0" y="100" font-family="Virgil, Segoe UI Emoji" font-size="20px" fill="#1e1e1e" text-anchor="start" style="white-space: pre;" direction="ltr" dominant-baseline="text-before-edge">body:</text><text x="0" y="125" font-family="Virgil, Segoe UI Emoji" font-size="20px" fill="#1e1e1e" text-anchor="start" style="white-space: pre;" direction="ltr" dominant-baseline="text-before-edge"></text><text x="0" y="150" font-family="Virgil, Segoe UI Emoji" font-size="20px" fill="#1e1e1e" text-anchor="start" style="white-space: pre;" direction="ltr" dominant-baseline="text-before-edge">{</text><text x="0" y="175" font-family="Virgil, Segoe UI Emoji" font-size="20px" fill="#1e1e1e" text-anchor="start" style="white-space: pre;" direction="ltr" dominant-baseline="text-before-edge">    SME.csv</text><text x="0" y="200" font-family="Virgil, Segoe UI Emoji" font-size="20px" fill="#1e1e1e" text-anchor="start" style="white-space: pre;" direction="ltr" dominant-baseline="text-before-edge">}</text><text x="0" y="225" font-family="Virgil, Segoe UI Emoji" font-size="20px" fill="#1e1e1e" text-anchor="start" style="white-space: pre;" direction="ltr" dominant-baseline="text-before-edge"></text><text x="0" y="250" font-family="Virgil, Segoe UI Emoji" font-size="20px" fill="#1e1e1e" text-anchor="start" style="white-space: pre;" direction="ltr" dominant-baseline="text-before-edge">response:</text><text x="0" y="275" font-family="Virgil, Segoe UI Emoji" font-size="20px" fill="#1e1e1e" text-anchor="start" style="white-space: pre;" direction="ltr" dominant-baseline="text-before-edge"></text><text x="0" y="300" font-family="Virgil, Segoe UI Emoji" font-size="20px" fill="#1e1e1e" text-anchor="start" style="white-space: pre;" direction="ltr" dominant-baseline="text-before-edge">{</text><text x="0" y="325" font-family="Virgil, Segoe UI Emoji" font-size="20px" fill="#1e1e1e" text-anchor="start" style="white-space: pre;" direction="ltr" dominant-baseline="text-before-edge">    status,</text><text x="0" y="350" font-family="Virgil, Segoe UI Emoji" font-size="20px" fill="#1e1e1e" text-anchor="start" style="white-space: pre;" direction="ltr" dominant-baseline="text-before-edge">    msg</text><text x="0" y="375" font-family="Virgil, Segoe UI Emoji" font-size="20px" fill="#1e1e1e" text-anchor="start" style="white-space: pre;" direction="ltr" dominant-baseline="text-before-edge">}</text></g><g stroke-linecap="round" transform="translate(1047.7911987373366 79.64386671508043) rotate(0 151.4284325848035 222.32023438796)"><path d="M32 0 C96.18 -0.05, 161.47 -2.16, 270.86 0 M32 0 C101.28 0.53, 171.96 -0.38, 270.86 0 M270.86 0 C294.15 -1.79, 301.31 12.56, 302.86 32 M270.86 0 C292.06 0.05, 304.55 10.21, 302.86 32 M302.86 32 C302 169.56, 302.96 304.14, 302.86 412.64 M302.86 32 C300.34 116.46, 301.06 200.49, 302.86 412.64 M302.86 412.64 C304.28 435.33, 292.03 446.43, 270.86 444.64 M302.86 412.64 C301.25 433.04, 293.13 444.88, 270.86 444.64 M270.86 444.64 C208.5 443.95, 147.82 444.7, 32 444.64 M270.86 444.64 C189.72 443.34, 107.53 443.97, 32 444.64 M32 444.64 C8.72 443.38, 0.75 435.68, 0 412.64 M32 444.64 C12.37 446.6, 1.77 432.64, 0 412.64 M0 412.64 C1.31 327.81, 0.34 242.48, 0 32 M0 412.64 C0.87 295.22, 0.65 177.04, 0 32 M0 32 C-0.3 11.72, 8.8 1.86, 32 0 M0 32 C-0.75 11.33, 11.88 0.61, 32 0" stroke="#1e1e1e" stroke-width="2" fill="none"></path></g><g transform="translate(1082.9128185341422 123.54834001878658) rotate(0 77.18333435058594 187.5)"><text x="0" y="0" font-family="Virgil, Segoe UI Emoji" font-size="20px" fill="#1e1e1e" text-anchor="start" style="white-space: pre;" direction="ltr" dominant-baseline="text-before-edge">GET</text><text x="0" y="25" font-family="Virgil, Segoe UI Emoji" font-size="20px" fill="#1e1e1e" text-anchor="start" style="white-space: pre;" direction="ltr" dominant-baseline="text-before-edge"></text><text x="0" y="50" font-family="Virgil, Segoe UI Emoji" font-size="20px" fill="#1e1e1e" text-anchor="start" style="white-space: pre;" direction="ltr" dominant-baseline="text-before-edge">/api/getStock</text><text x="0" y="75" font-family="Virgil, Segoe UI Emoji" font-size="20px" fill="#1e1e1e" text-anchor="start" style="white-space: pre;" direction="ltr" dominant-baseline="text-before-edge"></text><text x="0" y="100" font-family="Virgil, Segoe UI Emoji" font-size="20px" fill="#1e1e1e" text-anchor="start" style="white-space: pre;" direction="ltr" dominant-baseline="text-before-edge">params:</text><text x="0" y="125" font-family="Virgil, Segoe UI Emoji" font-size="20px" fill="#1e1e1e" text-anchor="start" style="white-space: pre;" direction="ltr" dominant-baseline="text-before-edge"></text><text x="0" y="150" font-family="Virgil, Segoe UI Emoji" font-size="20px" fill="#1e1e1e" text-anchor="start" style="white-space: pre;" direction="ltr" dominant-baseline="text-before-edge">{</text><text x="0" y="175" font-family="Virgil, Segoe UI Emoji" font-size="20px" fill="#1e1e1e" text-anchor="start" style="white-space: pre;" direction="ltr" dominant-baseline="text-before-edge">    stockId</text><text x="0" y="200" font-family="Virgil, Segoe UI Emoji" font-size="20px" fill="#1e1e1e" text-anchor="start" style="white-space: pre;" direction="ltr" dominant-baseline="text-before-edge">}</text><text x="0" y="225" font-family="Virgil, Segoe UI Emoji" font-size="20px" fill="#1e1e1e" text-anchor="start" style="white-space: pre;" direction="ltr" dominant-baseline="text-before-edge"></text><text x="0" y="250" font-family="Virgil, Segoe UI Emoji" font-size="20px" fill="#1e1e1e" text-anchor="start" style="white-space: pre;" direction="ltr" dominant-baseline="text-before-edge">response:</text><text x="0" y="275" font-family="Virgil, Segoe UI Emoji" font-size="20px" fill="#1e1e1e" text-anchor="start" style="white-space: pre;" direction="ltr" dominant-baseline="text-before-edge"></text><text x="0" y="300" font-family="Virgil, Segoe UI Emoji" font-size="20px" fill="#1e1e1e" text-anchor="start" style="white-space: pre;" direction="ltr" dominant-baseline="text-before-edge">{</text><text x="0" y="325" font-family="Virgil, Segoe UI Emoji" font-size="20px" fill="#1e1e1e" text-anchor="start" style="white-space: pre;" direction="ltr" dominant-baseline="text-before-edge">   Stock object</text><text x="0" y="350" font-family="Virgil, Segoe UI Emoji" font-size="20px" fill="#1e1e1e" text-anchor="start" style="white-space: pre;" direction="ltr" dominant-baseline="text-before-edge">}</text></g><g stroke-linecap="round" transform="translate(472.86991638286906 10) rotate(0 504.7062357482435 287.51342883012813)"><path d="M32 0 C289.25 -0.49, 545.5 0.37, 977.41 0 M32 0 C373.98 0.21, 716.21 -0.03, 977.41 0 M977.41 0 C997.23 0, 1008.39 8.8, 1009.41 32 M977.41 0 C999.43 1.6, 1010.62 11.77, 1009.41 32 M1009.41 32 C1008.86 138.67, 1008.42 244.86, 1009.41 543.03 M1009.41 32 C1009.87 196.89, 1009.77 361.25, 1009.41 543.03 M1009.41 543.03 C1008.19 564.6, 999.33 574.05, 977.41 575.03 M1009.41 543.03 C1009.7 564.33, 997.84 576.13, 977.41 575.03 M977.41 575.03 C681.77 574.14, 385.93 573.38, 32 575.03 M977.41 575.03 C652.22 574.5, 327.53 574.38, 32 575.03 M32 575.03 C9.84 575.79, 0.81 564.46, 0 543.03 M32 575.03 C9.1 574.11, -0.55 565.37, 0 543.03 M0 543.03 C0.3 364.61, 0.39 187.58, 0 32 M0 543.03 C-1.02 406.44, -0.95 270.71, 0 32 M0 32 C-1.4 8.96, 10.79 -0.07, 32 0 M0 32 C1.12 10.96, 9.78 1.42, 32 0" stroke="#1971c2" stroke-width="2" fill="none"></path></g><g transform="translate(508.4752945661668 31.363226909978493) rotate(0 55.20000076293945 12.5)"><text x="0" y="0" font-family="Virgil, Segoe UI Emoji" font-size="20px" fill="#1971c2" text-anchor="start" style="white-space: pre;" direction="ltr" dominant-baseline="text-before-edge">StOCK API</text></g><g stroke-linecap="round" transform="translate(71.54588929682245 716.8514517695113) rotate(0 151.4284325848035 280.3842185827776)"><path d="M32 0 C114.87 -0.1, 197.58 -0.1, 270.86 0 M32 0 C118.64 1.03, 205.31 0.94, 270.86 0 M270.86 0 C293.02 1.2, 301.39 9, 302.86 32 M270.86 0 C290.93 -1.32, 301.57 9.08, 302.86 32 M302.86 32 C302.35 160.46, 301.42 289.29, 302.86 528.77 M302.86 32 C302.7 180.1, 303.01 328.55, 302.86 528.77 M302.86 528.77 C302.72 551.79, 293.56 561.52, 270.86 560.77 M302.86 528.77 C301.61 547.95, 291.37 560.96, 270.86 560.77 M270.86 560.77 C177.84 559.04, 83.01 560.94, 32 560.77 M270.86 560.77 C208.33 561.54, 145.7 562.54, 32 560.77 M32 560.77 C12.33 562.5, 1.89 549.12, 0 528.77 M32 560.77 C9.02 562.26, -0.84 551.79, 0 528.77 M0 528.77 C0.64 405.42, 0.69 280.6, 0 32 M0 528.77 C-0.52 402.48, 0.19 275.08, 0 32 M0 32 C1.92 11.74, 11.38 -0.44, 32 0 M0 32 C1.99 10.83, 8.64 0.4, 32 0" stroke="#1e1e1e" stroke-width="2" fill="none"></path></g><g transform="translate(131.54157418822172 767.4040278562901) rotate(0 84.55000305175781 237.49999999999994)"><text x="0" y="0" font-family="Virgil, Segoe UI Emoji" font-size="20px" fill="#1e1e1e" text-anchor="start" style="white-space: pre;" direction="ltr" dominant-baseline="text-before-edge">POST</text><text x="0" y="25" font-family="Virgil, Segoe UI Emoji" font-size="20px" fill="#1e1e1e" text-anchor="start" style="white-space: pre;" direction="ltr" dominant-baseline="text-before-edge"></text><text x="0" y="50" font-family="Virgil, Segoe UI Emoji" font-size="20px" fill="#1e1e1e" text-anchor="start" style="white-space: pre;" direction="ltr" dominant-baseline="text-before-edge">/api/trade</text><text x="0" y="75" font-family="Virgil, Segoe UI Emoji" font-size="20px" fill="#1e1e1e" text-anchor="start" style="white-space: pre;" direction="ltr" dominant-baseline="text-before-edge"></text><text x="0" y="100" font-family="Virgil, Segoe UI Emoji" font-size="20px" fill="#1e1e1e" text-anchor="start" style="white-space: pre;" direction="ltr" dominant-baseline="text-before-edge">body:</text><text x="0" y="125" font-family="Virgil, Segoe UI Emoji" font-size="20px" fill="#1e1e1e" text-anchor="start" style="white-space: pre;" direction="ltr" dominant-baseline="text-before-edge"></text><text x="0" y="150" font-family="Virgil, Segoe UI Emoji" font-size="20px" fill="#1e1e1e" text-anchor="start" style="white-space: pre;" direction="ltr" dominant-baseline="text-before-edge">{</text><text x="0" y="175" font-family="Virgil, Segoe UI Emoji" font-size="20px" fill="#1e1e1e" text-anchor="start" style="white-space: pre;" direction="ltr" dominant-baseline="text-before-edge">    user_acc_id,</text><text x="0" y="200" font-family="Virgil, Segoe UI Emoji" font-size="20px" fill="#1e1e1e" text-anchor="start" style="white-space: pre;" direction="ltr" dominant-baseline="text-before-edge">    stock_id,</text><text x="0" y="225" font-family="Virgil, Segoe UI Emoji" font-size="20px" fill="#1e1e1e" text-anchor="start" style="white-space: pre;" direction="ltr" dominant-baseline="text-before-edge">    quantity,</text><text x="0" y="250" font-family="Virgil, Segoe UI Emoji" font-size="20px" fill="#1e1e1e" text-anchor="start" style="white-space: pre;" direction="ltr" dominant-baseline="text-before-edge">    trade_type</text><text x="0" y="275" font-family="Virgil, Segoe UI Emoji" font-size="20px" fill="#1e1e1e" text-anchor="start" style="white-space: pre;" direction="ltr" dominant-baseline="text-before-edge">}</text><text x="0" y="300" font-family="Virgil, Segoe UI Emoji" font-size="20px" fill="#1e1e1e" text-anchor="start" style="white-space: pre;" direction="ltr" dominant-baseline="text-before-edge"></text><text x="0" y="325" font-family="Virgil, Segoe UI Emoji" font-size="20px" fill="#1e1e1e" text-anchor="start" style="white-space: pre;" direction="ltr" dominant-baseline="text-before-edge">response:</text><text x="0" y="350" font-family="Virgil, Segoe UI Emoji" font-size="20px" fill="#1e1e1e" text-anchor="start" style="white-space: pre;" direction="ltr" dominant-baseline="text-before-edge"></text><text x="0" y="375" font-family="Virgil, Segoe UI Emoji" font-size="20px" fill="#1e1e1e" text-anchor="start" style="white-space: pre;" direction="ltr" dominant-baseline="text-before-edge">{</text><text x="0" y="400" font-family="Virgil, Segoe UI Emoji" font-size="20px" fill="#1e1e1e" text-anchor="start" style="white-space: pre;" direction="ltr" dominant-baseline="text-before-edge">    status,</text><text x="0" y="425" font-family="Virgil, Segoe UI Emoji" font-size="20px" fill="#1e1e1e" text-anchor="start" style="white-space: pre;" direction="ltr" dominant-baseline="text-before-edge">    msg </text><text x="0" y="450" font-family="Virgil, Segoe UI Emoji" font-size="20px" fill="#1e1e1e" text-anchor="start" style="white-space: pre;" direction="ltr" dominant-baseline="text-before-edge">}</text></g><g stroke-linecap="round" transform="translate(10 638.4349249352027) rotate(0 215.41253800895055 344.48203392340423)"><path d="M32 0 C115.24 0.99, 200.4 0.08, 398.83 0 M32 0 C167.69 -0.14, 304.05 0.04, 398.83 0 M398.83 0 C418.38 -1.14, 429.23 10.77, 430.83 32 M398.83 0 C418.3 -0.17, 430.39 10.42, 430.83 32 M430.83 32 C432.48 194.49, 432 358.31, 430.83 656.96 M430.83 32 C431.52 178.91, 430.86 325, 430.83 656.96 M430.83 656.96 C432.8 678.96, 421.53 689.95, 398.83 688.96 M430.83 656.96 C429.94 677.95, 419.27 687.42, 398.83 688.96 M398.83 688.96 C253.62 689.87, 107.35 689.38, 32 688.96 M398.83 688.96 C258.66 689.67, 116.9 689.78, 32 688.96 M32 688.96 C11.68 689.63, 0.8 679.88, 0 656.96 M32 688.96 C9.27 691.08, -1.61 680.25, 0 656.96 M0 656.96 C1.38 531.3, 2.75 405.05, 0 32 M0 656.96 C0.48 520.88, 0.11 384.72, 0 32 M0 32 C-0.17 11.45, 11.86 -0.82, 32 0 M0 32 C0.94 10.25, 10.71 -1.02, 32 0" stroke="#1971c2" stroke-width="2" fill="none"></path></g><g transform="translate(34.923764728308356 679.381109845995) rotate(0 59.54999923706055 12.5)"><text x="0" y="0" font-family="Virgil, Segoe UI Emoji" font-size="20px" fill="#1971c2" text-anchor="start" style="white-space: pre;" direction="ltr" dominant-baseline="text-before-edge">TRADE API</text></g><g stroke-linecap="round" transform="translate(775.6540819048782 813.8144876486068) rotate(0 168.38295125757185 117.93127765184164)"><path d="M211.25 29.5 C237.9 45.66, 262.7 65.38, 294.52 88.5 M211.25 29.5 C232.15 45.73, 254.21 61.4, 294.52 88.5 M294.52 88.5 C336.71 119.46, 337.26 117.15, 294.52 147.5 M294.52 88.5 C334.67 116.13, 336.68 120.14, 294.52 147.5 M294.52 147.5 C267.65 166.17, 239.71 182.95, 211.25 206.36 M294.52 147.5 C262.81 169.92, 232.63 190.73, 211.25 206.36 M211.25 206.36 C167.35 237.23, 169.52 236.4, 126.75 206.36 M211.25 206.36 C167.99 233.95, 169 233.79, 126.75 206.36 M126.75 206.36 C103.08 192.13, 81.13 173.98, 42.25 147.5 M126.75 206.36 C105.59 190.67, 81.99 176.83, 42.25 147.5 M42.25 147.5 C0.37 117.21, -1.53 119.18, 42.25 88.5 M42.25 147.5 C-0.45 117.35, -1.38 117.85, 42.25 88.5 M42.25 88.5 C68.23 68.05, 96.29 51.55, 126.75 29.5 M42.25 88.5 C74.24 66.56, 104.23 44.11, 126.75 29.5 M126.75 29.5 C169.5 1.54, 169.96 -1.86, 211.25 29.5 M126.75 29.5 C167.98 0.57, 170.61 -1.47, 211.25 29.5" stroke="#1971c2" stroke-width="2" fill="none"></path></g><g transform="translate(870.2288888324923 914.2801264745276) rotate(0 73.61666870117188 17.5)"><text x="73.61666870117188" y="0" font-family="Virgil, Segoe UI Emoji" font-size="28px" fill="#1971c2" text-anchor="middle" style="white-space: pre;" direction="ltr" dominant-baseline="text-before-edge">Controllers</text></g><g stroke-linecap="round" transform="translate(1425.801713512284 751.3348687773843) rotate(0 151.42843258480343 222.32023438796006)"><path d="M32 0 C81.76 1.39, 128.11 2.49, 270.86 0 M32 0 C103.96 -2.23, 175.85 -1.01, 270.86 0 M270.86 0 C291.23 0.68, 301.47 10.99, 302.86 32 M270.86 0 C293.55 -1.04, 300.65 11.23, 302.86 32 M302.86 32 C303.26 180.88, 304.17 331.17, 302.86 412.64 M302.86 32 C302.79 169.36, 302.86 307.58, 302.86 412.64 M302.86 412.64 C304.33 432.27, 293.04 444.63, 270.86 444.64 M302.86 412.64 C301.96 435.18, 291.9 443.86, 270.86 444.64 M270.86 444.64 C189.56 447.19, 105.28 447.44, 32 444.64 M270.86 444.64 C212.74 442.81, 155.47 442.53, 32 444.64 M32 444.64 C10.86 443.88, 1.77 434.85, 0 412.64 M32 444.64 C9 443.06, -0.52 433.58, 0 412.64 M0 412.64 C-0.53 273.52, 0.16 132.49, 0 32 M0 412.64 C1.05 280.54, 1.02 149.19, 0 32 M0 32 C0.24 8.85, 10.59 -0.94, 32 0 M0 32 C-0.16 10.28, 9.55 1.59, 32 0" stroke="#1e1e1e" stroke-width="2" fill="none"></path></g><g transform="translate(1463.7208594593262 776.5463515607054) rotate(0 88 187.50000000000006)"><text x="0" y="0" font-family="Virgil, Segoe UI Emoji" font-size="20px" fill="#1e1e1e" text-anchor="start" style="white-space: pre;" direction="ltr" dominant-baseline="text-before-edge">GET</text><text x="0" y="25" font-family="Virgil, Segoe UI Emoji" font-size="20px" fill="#1e1e1e" text-anchor="start" style="white-space: pre;" direction="ltr" dominant-baseline="text-before-edge"></text><text x="0" y="50" font-family="Virgil, Segoe UI Emoji" font-size="20px" fill="#1e1e1e" text-anchor="start" style="white-space: pre;" direction="ltr" dominant-baseline="text-before-edge">/api/getPortfolio</text><text x="0" y="75" font-family="Virgil, Segoe UI Emoji" font-size="20px" fill="#1e1e1e" text-anchor="start" style="white-space: pre;" direction="ltr" dominant-baseline="text-before-edge"></text><text x="0" y="100" font-family="Virgil, Segoe UI Emoji" font-size="20px" fill="#1e1e1e" text-anchor="start" style="white-space: pre;" direction="ltr" dominant-baseline="text-before-edge">params:</text><text x="0" y="125" font-family="Virgil, Segoe UI Emoji" font-size="20px" fill="#1e1e1e" text-anchor="start" style="white-space: pre;" direction="ltr" dominant-baseline="text-before-edge"></text><text x="0" y="150" font-family="Virgil, Segoe UI Emoji" font-size="20px" fill="#1e1e1e" text-anchor="start" style="white-space: pre;" direction="ltr" dominant-baseline="text-before-edge">{</text><text x="0" y="175" font-family="Virgil, Segoe UI Emoji" font-size="20px" fill="#1e1e1e" text-anchor="start" style="white-space: pre;" direction="ltr" dominant-baseline="text-before-edge">    user_id</text><text x="0" y="200" font-family="Virgil, Segoe UI Emoji" font-size="20px" fill="#1e1e1e" text-anchor="start" style="white-space: pre;" direction="ltr" dominant-baseline="text-before-edge">}</text><text x="0" y="225" font-family="Virgil, Segoe UI Emoji" font-size="20px" fill="#1e1e1e" text-anchor="start" style="white-space: pre;" direction="ltr" dominant-baseline="text-before-edge"></text><text x="0" y="250" font-family="Virgil, Segoe UI Emoji" font-size="20px" fill="#1e1e1e" text-anchor="start" style="white-space: pre;" direction="ltr" dominant-baseline="text-before-edge">response:</text><text x="0" y="275" font-family="Virgil, Segoe UI Emoji" font-size="20px" fill="#1e1e1e" text-anchor="start" style="white-space: pre;" direction="ltr" dominant-baseline="text-before-edge"></text><text x="0" y="300" font-family="Virgil, Segoe UI Emoji" font-size="20px" fill="#1e1e1e" text-anchor="start" style="white-space: pre;" direction="ltr" dominant-baseline="text-before-edge">{</text><text x="0" y="325" font-family="Virgil, Segoe UI Emoji" font-size="20px" fill="#1e1e1e" text-anchor="start" style="white-space: pre;" direction="ltr" dominant-baseline="text-before-edge">    Holding Object</text><text x="0" y="350" font-family="Virgil, Segoe UI Emoji" font-size="20px" fill="#1e1e1e" text-anchor="start" style="white-space: pre;" direction="ltr" dominant-baseline="text-before-edge">}</text></g><g stroke-linecap="round" transform="translate(1359.4438331469805 665.1389585726762) rotate(0 212.7421346452033 298.1950422851174)"><path d="M32 0 C130.79 1, 229.14 1.97, 393.48 0 M32 0 C174.11 1.17, 317.78 1.95, 393.48 0 M393.48 0 C415.35 1.7, 425.06 11.25, 425.48 32 M393.48 0 C413.86 0.58, 427.32 12.44, 425.48 32 M425.48 32 C428.1 146.71, 427.41 261.12, 425.48 564.39 M425.48 32 C427.49 144.19, 427.93 256.11, 425.48 564.39 M425.48 564.39 C426.39 586.46, 415.34 596.5, 393.48 596.39 M425.48 564.39 C424.29 586.34, 416.23 598.44, 393.48 596.39 M393.48 596.39 C309.42 597.01, 223.61 596.71, 32 596.39 M393.48 596.39 C254.42 594.2, 114.61 594.99, 32 596.39 M32 596.39 C11.17 595.02, 1.06 583.78, 0 564.39 M32 596.39 C12.16 594.22, -1.54 586.28, 0 564.39 M0 564.39 C2.01 451.43, 1.86 336.97, 0 32 M0 564.39 C1.83 448.35, 1.83 331.76, 0 32 M0 32 C1.54 11.99, 10.61 -0.79, 32 0 M0 32 C0.79 12.51, 10.02 -1.87, 32 0" stroke="#1971c2" stroke-width="2" fill="none"></path></g><g transform="translate(1405.7308247852673 705.7443367559738) rotate(0 84.03333282470709 12.5)"><text x="0" y="0" font-family="Virgil, Segoe UI Emoji" font-size="20px" fill="#1971c2" text-anchor="start" style="white-space: pre;" direction="ltr" dominant-baseline="text-before-edge">PORTFOLIO API</text></g><g stroke-linecap="round"><g transform="translate(1104.8653791364002 937.5201016749031) rotate(0 122.83855473237679 0.8901344545824941)"><path d="M-1.03 0.7 C39.81 1.19, 204.1 2.19, 245.38 2.24 M0.63 0.02 C41.25 0.21, 203.32 0.05, 244.28 0.36" stroke="#1971c2" stroke-width="2" fill="none"></path></g><g transform="translate(1104.8653791364002 937.5201016749031) rotate(0 122.83855473237679 0.8901344545824941)"><path d="M220.77 8.85 C229.73 5.76, 237.07 5.08, 244.28 0.36 M220.77 8.85 C226.93 7.07, 232.7 5.21, 244.28 0.36" stroke="#1971c2" stroke-width="2" fill="none"></path></g><g transform="translate(1104.8653791364002 937.5201016749031) rotate(0 122.83855473237679 0.8901344545824941)"><path d="M220.81 -8.26 C229.66 -5.71, 236.99 -0.76, 244.28 0.36 M220.81 -8.26 C226.99 -6.03, 232.74 -3.9, 244.28 0.36" stroke="#1971c2" stroke-width="2" fill="none"></path></g></g><mask></mask><g stroke-linecap="round"><g transform="translate(774.353492963997 929.9654963912838) rotate(0 -160.53326729097154 2.559150237302333)"><path d="M-1.12 0.03 C-54.49 0.98, -266.99 4.57, -320.17 5.4 M0.5 -1 C-52.95 -0.4, -267.15 2.21, -320.65 3.42" stroke="#1971c2" stroke-width="2" fill="none"></path></g><g transform="translate(774.353492963997 929.9654963912838) rotate(0 -160.53326729097154 2.559150237302333)"><path d="M-297.31 -5.52 C-304.36 -1.54, -311.01 1.08, -320.65 3.42 M-297.31 -5.52 C-303.4 -2.1, -310.45 0.44, -320.65 3.42" stroke="#1971c2" stroke-width="2" fill="none"></path></g><g transform="translate(774.353492963997 929.9654963912838) rotate(0 -160.53326729097154 2.559150237302333)"><path d="M-297.02 11.58 C-304.11 10.38, -310.85 7.82, -320.65 3.42 M-297.02 11.58 C-303.06 10.04, -310.19 7.63, -320.65 3.42" stroke="#1971c2" stroke-width="2" fill="none"></path></g></g><mask></mask><g stroke-linecap="round"><g transform="translate(947.140869528392 814.7674674190616) rotate(0 3.812025305367797 -107.74922924274296)"><path d="M-0.63 1.06 C0.37 -34.92, 5.38 -180.47, 6.77 -216.65 M1.25 0.56 C2.56 -35.24, 8.07 -179.79, 9.04 -215.72" stroke="#1971c2" stroke-width="2" fill="none"></path></g><g transform="translate(947.140869528392 814.7674674190616) rotate(0 3.812025305367797 -107.74922924274296)"><path d="M16.8 -191.96 C15.89 -202.07, 9.38 -209.1, 9.04 -215.72 M16.8 -191.96 C15.64 -197.78, 13.42 -204.02, 9.04 -215.72" stroke="#1971c2" stroke-width="2" fill="none"></path></g><g transform="translate(947.140869528392 814.7674674190616) rotate(0 3.812025305367797 -107.74922924274296)"><path d="M-0.29 -192.53 C5.02 -202.34, 4.74 -209.17, 9.04 -215.72 M-0.29 -192.53 C2.9 -198.08, 5.03 -204.18, 9.04 -215.72" stroke="#1971c2" stroke-width="2" fill="none"></path></g></g><mask></mask></svg>