<svg version="1.1" xmlns="http://www.w3.org/2000/svg" viewBox="0 0 972.154479461567 1194.6643105270794" width="1944.308958923134" height="2389.3286210541587" filter="invert(93%) hue-rotate(180deg)">
  <!-- svg-source:excalidraw -->
  
  <defs>
    <style class="style-fonts">
      @font-face {
        font-family: "Virgil";
        src: url("https://excalidraw.com/Virgil.woff2");
      }
      @font-face {
        font-family: "Cascadia";
        src: url("https://excalidraw.com/Cascadia.woff2");
      }
      @font-face {
        font-family: "Assistant";
        src: url("https://excalidraw.com/Assistant-Regular.woff2");
      }
    </style>
    
  </defs>
  <rect x="0" y="0" width="972.154479461567" height="1194.6643105270794" fill="#fdf8f6"></rect><g stroke-linecap="round" transform="translate(352.86055394546247 10) rotate(0 129.06411743164062 92.84782409667969)"><path d="M162.5 23.25 C179.05 34.76, 196.39 50.62, 225.63 69.75 M162.5 23.25 C187.92 42.33, 212.21 60.49, 225.63 69.75 M225.63 69.75 C256.91 93.42, 259.08 94.22, 225.63 116.25 M225.63 69.75 C257.87 90.92, 257.54 94.68, 225.63 116.25 M225.63 116.25 C213.52 125.6, 196.54 138.27, 162.5 162.45 M225.63 116.25 C201.58 132.82, 178.67 151.68, 162.5 162.45 M162.5 162.45 C130.28 186.54, 129.32 187.24, 97.5 162.45 M162.5 162.45 C132.19 186.11, 131.79 187.4, 97.5 162.45 M97.5 162.45 C74.34 147.95, 55.58 130.61, 32.5 116.25 M97.5 162.45 C76.23 147.3, 56.45 131.67, 32.5 116.25 M32.5 116.25 C-1.07 93.14, 1.51 93.15, 32.5 69.75 M32.5 116.25 C1.59 94.31, -1.98 92.33, 32.5 69.75 M32.5 69.75 C56.32 51.4, 83.17 33.3, 97.5 23.25 M32.5 69.75 C52.55 54.43, 70.94 42.49, 97.5 23.25 M97.5 23.25 C129.42 -0.62, 131.09 -0.2, 162.5 23.25 M97.5 23.25 C131.08 1.96, 129.88 1.81, 162.5 23.25" stroke="#1971c2" stroke-width="2" fill="none"></path></g><g transform="translate(452.30263921157575 90.42391204833984) rotate(0 29.58997344970703 12.5)"><text x="29.58997344970703" y="0" font-family="Virgil, Segoe UI Emoji" font-size="20px" fill="#1971c2" text-anchor="middle" style="white-space: pre;" direction="ltr" dominant-baseline="text-before-edge">Entity</text></g><g stroke-linecap="round" transform="translate(285.03643605560706 242.70307003773257) rotate(0 66.49404293790838 17.5)"><path d="M8.75 0 C43.59 -2.17, 82.73 -2.06, 124.24 0 M8.75 0 C54.16 1.14, 98.27 1.17, 124.24 0 M124.24 0 C130.19 -1.88, 134.44 4.82, 132.99 8.75 M124.24 0 C127.79 -0.41, 133.58 3.99, 132.99 8.75 M132.99 8.75 C131.78 14.55, 131.18 22.23, 132.99 26.25 M132.99 8.75 C132.37 14.51, 132.34 20.94, 132.99 26.25 M132.99 26.25 C133.1 33.66, 131.89 36.78, 124.24 35 M132.99 26.25 C131.51 29.83, 128.57 33.75, 124.24 35 M124.24 35 C83.99 37.7, 40.74 35.15, 8.75 35 M124.24 35 C99.58 35.2, 76.21 34.48, 8.75 35 M8.75 35 C2.11 34.63, -1.17 33.01, 0 26.25 M8.75 35 C3.99 34.74, 0.75 30.52, 0 26.25 M0 26.25 C-1 21.49, -1.1 13.33, 0 8.75 M0 26.25 C-0.92 21.23, 0.07 18.05, 0 8.75 M0 8.75 C0.95 2.63, 2.86 -0.19, 8.75 0 M0 8.75 C0.77 3.7, 4.75 -0.41, 8.75 0" stroke="#1971c2" stroke-width="2" fill="none"></path></g><g transform="translate(320.8971457873388 247.73099898795988) rotate(0 30.63333320617687 12.472071049772637)"><text x="30.633333206176758" y="0" font-family="Virgil, Segoe UI Emoji" font-size="19.95531367963623px" fill="#1971c2" text-anchor="middle" style="white-space: pre;" direction="ltr" dominant-baseline="text-before-edge">holding</text></g><g stroke-linecap="round" transform="translate(563.1491265548443 239.7095902894339) rotate(0 66.49404293790849 17.5)"><path d="M8.75 0 C41.54 1.33, 73.4 2.43, 124.24 0 M8.75 0 C52.54 1.38, 96.81 0.86, 124.24 0 M124.24 0 C128.45 0.49, 134.94 3.39, 132.99 8.75 M124.24 0 C128.73 0, 132.67 2.86, 132.99 8.75 M132.99 8.75 C133.57 14.17, 131.8 18.09, 132.99 26.25 M132.99 8.75 C132.94 12.65, 133.96 16.24, 132.99 26.25 M132.99 26.25 C133.87 30.88, 129.57 35.82, 124.24 35 M132.99 26.25 C135.15 33.4, 132.04 35.06, 124.24 35 M124.24 35 C87.17 34.57, 48.15 35.26, 8.75 35 M124.24 35 C88.94 34.82, 55.86 36.25, 8.75 35 M8.75 35 C2.28 36.81, 1.8 32.7, 0 26.25 M8.75 35 C5.08 37.16, -0.92 33.57, 0 26.25 M0 26.25 C0.86 21.81, 0.12 15.28, 0 8.75 M0 26.25 C0.94 23.35, -0.52 18, 0 8.75 M0 8.75 C-1.39 4.54, 1.63 0.5, 8.75 0 M0 8.75 C0.07 0.67, 4.17 -0.64, 8.75 0" stroke="#1971c2" stroke-width="2" fill="none"></path></g><g transform="translate(603.1765023174598 244.7375192396612) rotate(0 26.46666717529297 12.472071049772637)"><text x="26.46666717529297" y="0" font-family="Virgil, Segoe UI Emoji" font-size="19.95531367963623px" fill="#1971c2" text-anchor="middle" style="white-space: pre;" direction="ltr" dominant-baseline="text-before-edge">stock</text></g><g stroke-linecap="round"><g transform="translate(420.3647970991219 152.64178403426234) rotate(0 -31.227805983433427 42.50149096857692)"><path d="M-0.15 -1.01 C-10.45 13.34, -52.48 70.94, -62.98 85.36 M-1.69 1.08 C-12.09 15.12, -53.78 69.69, -64.21 83.42" stroke="#1e1e1e" stroke-width="2" fill="none"></path></g><g transform="translate(420.3647970991219 152.64178403426234) rotate(0 -31.227805983433427 42.50149096857692)"><path d="M-56.77 59.55 C-60.09 63.45, -59.31 67.96, -64.21 83.42 M-56.77 59.55 C-58.62 68.4, -61.42 76.21, -64.21 83.42" stroke="#1e1e1e" stroke-width="2" fill="none"></path></g><g transform="translate(420.3647970991219 152.64178403426234) rotate(0 -31.227805983433427 42.50149096857692)"><path d="M-43.17 69.91 C-49.15 71.72, -51.09 74.15, -64.21 83.42 M-43.17 69.91 C-49.63 75.12, -57.07 79.38, -64.21 83.42" stroke="#1e1e1e" stroke-width="2" fill="none"></path></g></g><mask></mask><g stroke-linecap="round"><g transform="translate(545.676743178064 152.56293396200255) rotate(0 41.62235583760207 43.11242869403398)"><path d="M0.18 0.26 C13.86 14.85, 68.23 72.75, 82.27 87.24 M-1.19 -0.65 C12.85 13.65, 70.22 71.31, 84.47 85.65" stroke="#1e1e1e" stroke-width="2" fill="none"></path></g><g transform="translate(545.676743178064 152.56293396200255) rotate(0 41.62235583760207 43.11242869403398)"><path d="M61.84 75.02 C69.36 76.7, 77.73 83.65, 84.47 85.65 M61.84 75.02 C70.31 79.97, 79.94 83.41, 84.47 85.65" stroke="#1e1e1e" stroke-width="2" fill="none"></path></g><g transform="translate(545.676743178064 152.56293396200255) rotate(0 41.62235583760207 43.11242869403398)"><path d="M73.97 62.96 C77.65 68.45, 82.2 79.19, 84.47 85.65 M73.97 62.96 C77.87 72.48, 82.86 80.53, 84.47 85.65" stroke="#1e1e1e" stroke-width="2" fill="none"></path></g></g><mask></mask><g stroke-linecap="round" transform="translate(418.9658331167402 358.3637801099453) rotate(0 66.49404293790849 17.5)"><path d="M8.75 0 C39.49 -1.11, 69.79 1.27, 124.24 0 M8.75 0 C44.52 0.84, 78.41 0.45, 124.24 0 M124.24 0 C130.54 -1.97, 131.8 4.67, 132.99 8.75 M124.24 0 C129.3 0.92, 133.64 1.82, 132.99 8.75 M132.99 8.75 C131.58 15.03, 134.7 21.14, 132.99 26.25 M132.99 8.75 C132.91 14.41, 132.94 20.26, 132.99 26.25 M132.99 26.25 C131.07 34.02, 130.27 33.95, 124.24 35 M132.99 26.25 C131.54 30.32, 130.85 35.11, 124.24 35 M124.24 35 C99.7 36.19, 75.58 34.51, 8.75 35 M124.24 35 C81.71 35.17, 38.76 35.37, 8.75 35 M8.75 35 C4.52 33.19, 0.83 30.6, 0 26.25 M8.75 35 C4.96 35.22, 2.2 33.81, 0 26.25 M0 26.25 C-0.36 19.83, -1.69 16.57, 0 8.75 M0 26.25 C0.64 22.44, -0.38 19.32, 0 8.75 M0 8.75 C-1.77 1.94, 3.91 0.48, 8.75 0 M0 8.75 C-1.71 3.07, 1.57 -0.2, 8.75 0" stroke="#1971c2" stroke-width="2" fill="none"></path></g><g transform="translate(457.7098760546487 363.3917090601726) rotate(0 27.75 12.472071049772637)"><text x="27.75" y="0" font-family="Virgil, Segoe UI Emoji" font-size="19.95531367963623px" fill="#1971c2" text-anchor="middle" style="white-space: pre;" direction="ltr" dominant-baseline="text-before-edge">trade</text></g><g stroke-linecap="round"><g transform="translate(484.9003828343689 197.76563547985086) rotate(0 -1.1193353237017618 76.99128105892629)"><path d="M0.31 -0.43 C0.02 25.34, -2.32 128.13, -2.92 154.05 M-0.99 -1.71 C-0.79 24.32, -0.57 129.78, -0.57 155.63" stroke="#1e1e1e" stroke-width="2" fill="none"></path></g><g transform="translate(484.9003828343689 197.76563547985086) rotate(0 -1.1193353237017618 76.99128105892629)"><path d="M-9.15 132.15 C-8.26 135.7, -5.7 139.76, -0.57 155.63 M-9.15 132.15 C-4.78 140.94, -1.77 149.94, -0.57 155.63" stroke="#1e1e1e" stroke-width="2" fill="none"></path></g><g transform="translate(484.9003828343689 197.76563547985086) rotate(0 -1.1193353237017618 76.99128105892629)"><path d="M7.95 132.12 C5.4 135.72, 4.53 139.79, -0.57 155.63 M7.95 132.12 C5.59 140.92, 1.86 149.93, -0.57 155.63" stroke="#1e1e1e" stroke-width="2" fill="none"></path></g></g><mask></mask><g stroke-linecap="round"><g transform="translate(282.99131583075905 260.54454994928403) rotate(0 -62.46617826066745 122.54467185192397)"><path d="M-0.99 -0.86 C-21.77 40, -104.8 204.7, -125.64 245.88 M0.69 1.3 C-19.62 41.77, -102.56 203.64, -123.31 244.17" stroke="#1e1e1e" stroke-width="2" fill="none"></path></g><g transform="translate(282.99131583075905 260.54454994928403) rotate(0 -62.46617826066745 122.54467185192397)"><path d="M-120.21 219.36 C-122.17 223.58, -120.1 228.29, -123.31 244.17 M-120.21 219.36 C-121.79 229.76, -122.16 238.62, -123.31 244.17" stroke="#1e1e1e" stroke-width="2" fill="none"></path></g><g transform="translate(282.99131583075905 260.54454994928403) rotate(0 -62.46617826066745 122.54467185192397)"><path d="M-104.99 227.16 C-110.33 229.54, -111.6 232.54, -123.31 244.17 M-104.99 227.16 C-112.52 234.32, -118.9 240.1, -123.31 244.17" stroke="#1e1e1e" stroke-width="2" fill="none"></path></g></g><mask></mask><g stroke-linecap="round" transform="translate(10 509.20106202928855) rotate(0 153.99315715872638 164.9338843083657)"><path d="M32 0 C87.41 -2.04, 141.45 1.09, 275.99 0 M32 0 C90.04 -0.51, 149.03 -0.3, 275.99 0 M275.99 0 C296.47 -0.7, 309.96 9.12, 307.99 32 M275.99 0 C296.01 1.25, 307.13 11.12, 307.99 32 M307.99 32 C308.26 95.59, 310.1 158.02, 307.99 297.87 M307.99 32 C307.88 127.76, 306.84 223.07, 307.99 297.87 M307.99 297.87 C309.76 317.44, 297.53 330.34, 275.99 329.87 M307.99 297.87 C309.53 319.67, 295.86 327.89, 275.99 329.87 M275.99 329.87 C198.34 328.33, 123.12 327.01, 32 329.87 M275.99 329.87 C215.28 331.31, 153.95 331.16, 32 329.87 M32 329.87 C10.77 328.02, -1.47 318.14, 0 297.87 M32 329.87 C12.84 331.85, -0.07 317.74, 0 297.87 M0 297.87 C-1.53 232.92, -2.37 168.03, 0 32 M0 297.87 C-1.68 207.51, -1.22 117.96, 0 32 M0 32 C1.76 9.66, 10.49 -1.61, 32 0 M0 32 C1.59 8.95, 8.87 -1.76, 32 0" stroke="#1e1e1e" stroke-width="2" fill="none"></path></g><g transform="translate(30.98329678604432 531.3888618256308) rotate(0 102.53333282470703 137.19278154749907)"><text x="0" y="0" font-family="Virgil, Segoe UI Emoji" font-size="19.95531367963623px" fill="#1e1e1e" text-anchor="start" style="white-space: pre;" direction="ltr" dominant-baseline="text-before-edge">Long holdingId;</text><text x="0" y="24.94414209954529" font-family="Virgil, Segoe UI Emoji" font-size="19.95531367963623px" fill="#1e1e1e" text-anchor="start" style="white-space: pre;" direction="ltr" dominant-baseline="text-before-edge"></text><text x="0" y="49.88828419909058" font-family="Virgil, Segoe UI Emoji" font-size="19.95531367963623px" fill="#1e1e1e" text-anchor="start" style="white-space: pre;" direction="ltr" dominant-baseline="text-before-edge">Long userAccId;</text><text x="0" y="74.83242629863587" font-family="Virgil, Segoe UI Emoji" font-size="19.95531367963623px" fill="#1e1e1e" text-anchor="start" style="white-space: pre;" direction="ltr" dominant-baseline="text-before-edge"></text><text x="0" y="99.77656839818115" font-family="Virgil, Segoe UI Emoji" font-size="19.95531367963623px" fill="#1e1e1e" text-anchor="start" style="white-space: pre;" direction="ltr" dominant-baseline="text-before-edge">Long stockId;</text><text x="0" y="124.72071049772644" font-family="Virgil, Segoe UI Emoji" font-size="19.95531367963623px" fill="#1e1e1e" text-anchor="start" style="white-space: pre;" direction="ltr" dominant-baseline="text-before-edge"></text><text x="0" y="149.66485259727173" font-family="Virgil, Segoe UI Emoji" font-size="19.95531367963623px" fill="#1e1e1e" text-anchor="start" style="white-space: pre;" direction="ltr" dominant-baseline="text-before-edge">int quantity = 0;</text><text x="0" y="174.60899469681704" font-family="Virgil, Segoe UI Emoji" font-size="19.95531367963623px" fill="#1e1e1e" text-anchor="start" style="white-space: pre;" direction="ltr" dominant-baseline="text-before-edge"></text><text x="0" y="199.5531367963623" font-family="Virgil, Segoe UI Emoji" font-size="19.95531367963623px" fill="#1e1e1e" text-anchor="start" style="white-space: pre;" direction="ltr" dominant-baseline="text-before-edge">Float buyPrice = 0f;</text><text x="0" y="224.49727889590758" font-family="Virgil, Segoe UI Emoji" font-size="19.95531367963623px" fill="#1e1e1e" text-anchor="start" style="white-space: pre;" direction="ltr" dominant-baseline="text-before-edge"></text><text x="0" y="249.4414209954529" font-family="Virgil, Segoe UI Emoji" font-size="19.95531367963623px" fill="#1e1e1e" text-anchor="start" style="white-space: pre;" direction="ltr" dominant-baseline="text-before-edge">Float gainLoss = 0f;</text></g><g stroke-linecap="round" transform="translate(374.57089175426654 822.3240046635922) rotate(0 113.80067171223686 181.1701529317436)"><path d="M32 0 C89.82 1.37, 147.91 0.32, 195.6 0 M32 0 C66.02 0.28, 101.87 -0.79, 195.6 0 M195.6 0 C215.73 -1.05, 226.1 11.24, 227.6 32 M195.6 0 C216.88 -0.92, 229.23 12.05, 227.6 32 M227.6 32 C230.21 103.33, 228.29 172.94, 227.6 330.34 M227.6 32 C227.78 136.23, 228.86 239.51, 227.6 330.34 M227.6 330.34 C228.53 349.76, 218.82 362.55, 195.6 362.34 M227.6 330.34 C225.49 350.93, 216.69 364, 195.6 362.34 M195.6 362.34 C136.34 362.29, 78.69 362.73, 32 362.34 M195.6 362.34 C154.81 363.54, 113.18 362.89, 32 362.34 M32 362.34 C10.58 362.76, -0.31 351.46, 0 330.34 M32 362.34 C9.16 364.21, -0.36 353.4, 0 330.34 M0 330.34 C-3.35 261.83, -1.88 192.2, 0 32 M0 330.34 C2.37 213.87, 2.08 96.69, 0 32 M0 32 C0.71 12.1, 10.91 -1.97, 32 0 M0 32 C1.81 11.44, 9.66 -1.61, 32 0" stroke="#1e1e1e" stroke-width="2" fill="none"></path></g><g stroke-linecap="round"><g transform="translate(490.7871366025638 405.7406824720324) rotate(0 -0.46828406428085145 208.6368334137818)"><path d="M0.64 0.63 C0.49 70.16, -0.7 348.29, -1.14 417.64 M-0.48 -0.08 C-0.79 69.03, -2.33 346.07, -2.2 415.7" stroke="#1e1e1e" stroke-width="2" fill="none"></path></g><g transform="translate(490.7871366025638 405.7406824720324) rotate(0 -0.46828406428085145 208.6368334137818)"><path d="M-10.69 392.19 C-7.17 398.38, -5.24 403.47, -2.2 415.7 M-10.69 392.19 C-8.88 399.07, -5.73 403.75, -2.2 415.7" stroke="#1e1e1e" stroke-width="2" fill="none"></path></g><g transform="translate(490.7871366025638 405.7406824720324) rotate(0 -0.46828406428085145 208.6368334137818)"><path d="M6.41 392.23 C5.15 398.5, 2.29 403.58, -2.2 415.7 M6.41 392.23 C3.89 399, 2.72 403.67, -2.2 415.7" stroke="#1e1e1e" stroke-width="2" fill="none"></path></g></g><mask></mask><g transform="translate(395.4180770238286 843.9198643811885) rotate(0 91.28333282470703 162.13692364704434)"><text x="0" y="0" font-family="Virgil, Segoe UI Emoji" font-size="19.955313679636234px" fill="#1e1e1e" text-anchor="start" style="white-space: pre;" direction="ltr" dominant-baseline="text-before-edge">Long tradeId;</text><text x="0" y="24.944142099545292" font-family="Virgil, Segoe UI Emoji" font-size="19.955313679636234px" fill="#1e1e1e" text-anchor="start" style="white-space: pre;" direction="ltr" dominant-baseline="text-before-edge"></text><text x="0" y="49.888284199090585" font-family="Virgil, Segoe UI Emoji" font-size="19.955313679636234px" fill="#1e1e1e" text-anchor="start" style="white-space: pre;" direction="ltr" dominant-baseline="text-before-edge">Long userAccId;</text><text x="0" y="74.83242629863588" font-family="Virgil, Segoe UI Emoji" font-size="19.955313679636234px" fill="#1e1e1e" text-anchor="start" style="white-space: pre;" direction="ltr" dominant-baseline="text-before-edge"></text><text x="0" y="99.77656839818117" font-family="Virgil, Segoe UI Emoji" font-size="19.955313679636234px" fill="#1e1e1e" text-anchor="start" style="white-space: pre;" direction="ltr" dominant-baseline="text-before-edge">Long stockId;</text><text x="0" y="124.72071049772646" font-family="Virgil, Segoe UI Emoji" font-size="19.955313679636234px" fill="#1e1e1e" text-anchor="start" style="white-space: pre;" direction="ltr" dominant-baseline="text-before-edge"></text><text x="0" y="149.66485259727176" font-family="Virgil, Segoe UI Emoji" font-size="19.955313679636234px" fill="#1e1e1e" text-anchor="start" style="white-space: pre;" direction="ltr" dominant-baseline="text-before-edge">String tradeType; </text><text x="0" y="174.60899469681704" font-family="Virgil, Segoe UI Emoji" font-size="19.955313679636234px" fill="#1e1e1e" text-anchor="start" style="white-space: pre;" direction="ltr" dominant-baseline="text-before-edge"></text><text x="0" y="199.55313679636234" font-family="Virgil, Segoe UI Emoji" font-size="19.955313679636234px" fill="#1e1e1e" text-anchor="start" style="white-space: pre;" direction="ltr" dominant-baseline="text-before-edge">int quantity;</text><text x="0" y="224.49727889590764" font-family="Virgil, Segoe UI Emoji" font-size="19.955313679636234px" fill="#1e1e1e" text-anchor="start" style="white-space: pre;" direction="ltr" dominant-baseline="text-before-edge"></text><text x="0" y="249.44142099545292" font-family="Virgil, Segoe UI Emoji" font-size="19.955313679636234px" fill="#1e1e1e" text-anchor="start" style="white-space: pre;" direction="ltr" dominant-baseline="text-before-edge">String status;</text><text x="0" y="274.3855630949982" font-family="Virgil, Segoe UI Emoji" font-size="19.955313679636234px" fill="#1e1e1e" text-anchor="start" style="white-space: pre;" direction="ltr" dominant-baseline="text-before-edge"></text><text x="0" y="299.3297051945435" font-family="Virgil, Segoe UI Emoji" font-size="19.955313679636234px" fill="#1e1e1e" text-anchor="start" style="white-space: pre;" direction="ltr" dominant-baseline="text-before-edge">String message;</text></g><g stroke-linecap="round" transform="translate(686.1415195333279 516.8677964386316) rotate(0 138.00647996411953 179.8647018419175)"><path d="M32 0 C95.46 -0.5, 156.59 0.91, 244.01 0 M32 0 C100.27 -0.3, 168.85 -0.71, 244.01 0 M244.01 0 C267.04 0.63, 277.78 9.96, 276.01 32 M244.01 0 C266.02 -0.7, 274.08 12.03, 276.01 32 M276.01 32 C274.49 95.21, 275.1 155.95, 276.01 327.73 M276.01 32 C278.1 140.94, 277.17 249.6, 276.01 327.73 M276.01 327.73 C278 348.06, 266.87 358.55, 244.01 359.73 M276.01 327.73 C275.93 348.36, 267.42 360.52, 244.01 359.73 M244.01 359.73 C171.02 359.01, 95.3 361.48, 32 359.73 M244.01 359.73 C199.52 358.18, 153.18 358.55, 32 359.73 M32 359.73 C10.58 358.91, 0.87 348.62, 0 327.73 M32 359.73 C10.52 359.33, 0.02 346.91, 0 327.73 M0 327.73 C1.78 213, 0.38 96.49, 0 32 M0 327.73 C-1.08 262.88, -0.78 195.92, 0 32 M0 32 C1.55 11.17, 9.65 0.65, 32 0 M0 32 C1.59 12.35, 8.82 1.37, 32 0" stroke="#1e1e1e" stroke-width="2" fill="none"></path></g><g stroke-linecap="round"><g transform="translate(697.7771555172003 275.6777271878858) rotate(0 55.156278806620776 114.9981493429504)"><path d="M-0.61 -0.15 C17.67 38.28, 90.59 192.06, 109.18 230.3 M1.27 -1.27 C19.95 36.8, 93.1 189.75, 111.29 228.34" stroke="#1e1e1e" stroke-width="2" fill="none"></path></g><g transform="translate(697.7771555172003 275.6777271878858) rotate(0 55.156278806620776 114.9981493429504)"><path d="M93.48 210.8 C97.83 213.55, 103.21 220.96, 111.29 228.34 M93.48 210.8 C98.18 214.66, 102.6 220.28, 111.29 228.34" stroke="#1e1e1e" stroke-width="2" fill="none"></path></g><g transform="translate(697.7771555172003 275.6777271878858) rotate(0 55.156278806620776 114.9981493429504)"><path d="M108.92 203.45 C109.24 208.04, 110.61 217.35, 111.29 228.34 M108.92 203.45 C109.9 209.12, 110.56 216.52, 111.29 228.34" stroke="#1e1e1e" stroke-width="2" fill="none"></path></g></g><mask></mask><g transform="translate(703.0470969807479 537.7252403681737) rotate(0 109.30000305175781 162.13692364704434)"><text x="0" y="0" font-family="Virgil, Segoe UI Emoji" font-size="19.95531367963623px" fill="#1e1e1e" text-anchor="start" style="white-space: pre;" direction="ltr" dominant-baseline="text-before-edge">Long stockId;</text><text x="0" y="24.94414209954529" font-family="Virgil, Segoe UI Emoji" font-size="19.95531367963623px" fill="#1e1e1e" text-anchor="start" style="white-space: pre;" direction="ltr" dominant-baseline="text-before-edge"></text><text x="0" y="49.88828419909058" font-family="Virgil, Segoe UI Emoji" font-size="19.95531367963623px" fill="#1e1e1e" text-anchor="start" style="white-space: pre;" direction="ltr" dominant-baseline="text-before-edge">String stockName; </text><text x="0" y="74.83242629863587" font-family="Virgil, Segoe UI Emoji" font-size="19.95531367963623px" fill="#1e1e1e" text-anchor="start" style="white-space: pre;" direction="ltr" dominant-baseline="text-before-edge"></text><text x="0" y="99.77656839818115" font-family="Virgil, Segoe UI Emoji" font-size="19.95531367963623px" fill="#1e1e1e" text-anchor="start" style="white-space: pre;" direction="ltr" dominant-baseline="text-before-edge">Float openPrice = 0f;</text><text x="0" y="124.72071049772644" font-family="Virgil, Segoe UI Emoji" font-size="19.95531367963623px" fill="#1e1e1e" text-anchor="start" style="white-space: pre;" direction="ltr" dominant-baseline="text-before-edge"></text><text x="0" y="149.66485259727173" font-family="Virgil, Segoe UI Emoji" font-size="19.95531367963623px" fill="#1e1e1e" text-anchor="start" style="white-space: pre;" direction="ltr" dominant-baseline="text-before-edge">Float closePrice = 0f;</text><text x="0" y="174.60899469681704" font-family="Virgil, Segoe UI Emoji" font-size="19.95531367963623px" fill="#1e1e1e" text-anchor="start" style="white-space: pre;" direction="ltr" dominant-baseline="text-before-edge"></text><text x="0" y="199.5531367963623" font-family="Virgil, Segoe UI Emoji" font-size="19.95531367963623px" fill="#1e1e1e" text-anchor="start" style="white-space: pre;" direction="ltr" dominant-baseline="text-before-edge">Float highPrice = 0f;</text><text x="0" y="224.49727889590758" font-family="Virgil, Segoe UI Emoji" font-size="19.95531367963623px" fill="#1e1e1e" text-anchor="start" style="white-space: pre;" direction="ltr" dominant-baseline="text-before-edge"></text><text x="0" y="249.4414209954529" font-family="Virgil, Segoe UI Emoji" font-size="19.95531367963623px" fill="#1e1e1e" text-anchor="start" style="white-space: pre;" direction="ltr" dominant-baseline="text-before-edge">Float lowPrice = 0f;</text><text x="0" y="274.3855630949982" font-family="Virgil, Segoe UI Emoji" font-size="19.95531367963623px" fill="#1e1e1e" text-anchor="start" style="white-space: pre;" direction="ltr" dominant-baseline="text-before-edge"></text><text x="0" y="299.32970519454346" font-family="Virgil, Segoe UI Emoji" font-size="19.95531367963623px" fill="#1e1e1e" text-anchor="start" style="white-space: pre;" direction="ltr" dominant-baseline="text-before-edge">Float currPrice = 0f;</text></g></svg>